<svg width="70" height="60" viewBox="0 0 70 60" fill="none" xmlns="http://www.w3.org/2000/svg">
<path fill-rule="evenodd" clip-rule="evenodd" d="M65.9295 5.95684L31.5385 36.1276L20.2794 25.026L2.25271 40.4703L0.638672 38.5864L20.3972 21.6583L31.6372 32.7409L64.2935 4.09199L65.9295 5.95684Z" fill="#BAFF66"/>
<path d="M68.6655 0.547107C69.2812 0.385526 69.841 0.951071 69.6731 1.56509L67.4061 9.85432C67.2382 10.4683 66.4685 10.6703 66.0207 10.2179L59.9755 4.10999C59.5277 3.65755 59.7376 2.89003 60.3534 2.72845L68.6655 0.547107Z" fill="#BAFF66"/>
<path d="M13.0572 40.9693C13.0572 39.5992 14.1679 38.4885 15.538 38.4885H20.4995C21.8696 38.4885 22.9803 39.5992 22.9803 40.9693V56.5383C22.9803 57.9084 21.8696 59.019 20.4995 59.019H15.538C14.1679 59.019 13.0572 57.9084 13.0572 56.5383V40.9693Z" fill="#263147"/>
<path d="M27.1151 44.3912C27.1151 43.0211 28.2258 41.9104 29.5958 41.9104H34.5574C35.9275 41.9104 37.0382 43.0211 37.0382 44.3912V56.5384C37.0382 57.9085 35.9275 59.0192 34.5574 59.0192H29.5958C28.2258 59.0192 27.1151 57.9085 27.1151 56.5384V44.3912Z" fill="#263147"/>
<path d="M41.1727 36.4073C41.1727 35.0372 42.2834 33.9265 43.6535 33.9265H48.615C49.9851 33.9265 51.0958 35.0372 51.0958 36.4073V56.5386C51.0958 57.9087 49.9851 59.0194 48.615 59.0194H43.6535C42.2834 59.0194 41.1727 57.9087 41.1727 56.5386V36.4073Z" fill="#263147"/>
<path d="M55.2303 28.4229C55.2303 27.0528 56.341 25.9421 57.7111 25.9421H62.6726C64.0427 25.9421 65.1534 27.0528 65.1534 28.4229V56.5383C65.1534 57.9084 64.0427 59.0191 62.6726 59.0191H57.7111C56.341 59.0191 55.2303 57.9084 55.2303 56.5383V28.4229Z" fill="#263147"/>
</svg>
