<svg width="69" height="56" viewBox="0 0 69 56" fill="none" xmlns="http://www.w3.org/2000/svg">
<path fill-rule="evenodd" clip-rule="evenodd" d="M54.0068 0.964529L63.7933 12.2654L61.8494 13.9488L53.6357 4.46399L23.6898 27.0303L0.078125 2.75354L1.92148 0.960693L23.9527 23.6125L54.0068 0.964529Z" fill="#BAFF66"/>
<path d="M68.7502 18.0865C68.8852 18.7323 68.2704 19.2821 67.6436 19.0761L59.1813 16.2946C58.5545 16.0886 58.3857 15.2812 58.8776 14.8414L65.5176 8.90359C66.0094 8.46375 66.793 8.72129 66.9279 9.36717L68.7502 18.0865Z" fill="#BAFF66"/>
<path d="M56.2855 22.8571C56.2855 21.4369 55.1342 20.2857 53.7141 20.2857H48.5712C47.151 20.2857 45.9998 21.4369 45.9998 22.8571V51.9999C45.9998 53.4201 47.151 54.5714 48.5712 54.5714H53.7141C55.1342 54.5714 56.2855 53.4201 56.2855 51.9999V22.8571Z" fill="#263147"/>
<path d="M41.3634 31.265C41.3634 29.8449 40.2121 28.6936 38.7919 28.6936H33.6491C32.2289 28.6936 31.0777 29.8449 31.0777 31.265V51.8365C31.0777 53.2566 32.2289 54.4079 33.6491 54.4079H38.7919C40.2121 54.4079 41.3634 53.2566 41.3634 51.8365V31.265Z" fill="#263147"/>
<path d="M27.1427 37.4286C27.1427 36.0085 25.9914 34.8572 24.5712 34.8572H19.4284C18.0082 34.8572 16.857 36.0085 16.857 37.4286V52.8572C16.857 54.2773 18.0082 55.4286 19.4284 55.4286H24.5712C25.9914 55.4286 27.1427 54.2774 27.1427 52.8572V37.4286Z" fill="#263147"/>
<path d="M12.5714 27.9999C12.5714 26.5797 11.4201 25.4285 9.99995 25.4285H4.8571C3.43694 25.4285 2.28567 26.5797 2.28567 27.9999V51.9999C2.28567 53.4201 3.43693 54.5713 4.8571 54.5713H9.99995C11.4201 54.5713 12.5714 53.4201 12.5714 51.9999V27.9999Z" fill="#263147"/>
</svg>
