<svg width="72" height="72" viewBox="0 0 72 72" fill="none" xmlns="http://www.w3.org/2000/svg">
<path d="M28.6873 4.45866C31.7501 -1.48622 40.2499 -1.48622 43.3127 4.45866C45.1531 8.03085 49.305 9.75061 53.1322 8.52604C59.5016 6.4881 65.5119 12.4984 63.474 18.8678C62.2494 22.695 63.9692 26.8469 67.5413 28.6873C73.4862 31.7501 73.4862 40.2499 67.5413 43.3127C63.9692 45.1531 62.2494 49.305 63.474 53.1322C65.5119 59.5016 59.5016 65.5119 53.1322 63.474C49.305 62.2494 45.1531 63.9692 43.3127 67.5413C40.2499 73.4862 31.7501 73.4862 28.6873 67.5413C26.8469 63.9692 22.695 62.2494 18.8678 63.474C12.4984 65.5119 6.4881 59.5016 8.52604 53.1322C9.75061 49.305 8.03085 45.1531 4.45866 43.3127C-1.48622 40.2499 -1.48622 31.7501 4.45866 28.6873C8.03085 26.8469 9.75061 22.695 8.52604 18.8678C6.4881 12.4984 12.4984 6.48811 18.8678 8.52604C22.695 9.75061 26.8469 8.03085 28.6873 4.45866Z" fill="#263147"/>
<path d="M26.1996 48.0327L23.9128 45.746L45.1634 24.5117L47.4502 26.8148L26.1996 48.0327ZM42.5499 48.5228C41.4719 48.5228 40.4864 48.2614 39.5935 47.7387C38.7114 47.2051 38.0036 46.4973 37.4701 45.6153C36.9365 44.7224 36.6697 43.7314 36.6697 42.6425C36.6697 41.5753 36.9419 40.5953 37.4864 39.7024C38.0309 38.8094 38.7496 38.0962 39.6425 37.5626C40.5354 37.029 41.5046 36.7623 42.5499 36.7623C43.628 36.7623 44.6135 37.029 45.5064 37.5626C46.3993 38.0853 47.1071 38.7931 47.6298 39.686C48.1634 40.5681 48.4302 41.5536 48.4302 42.6425C48.4302 43.7314 48.1634 44.7224 47.6298 45.6153C47.1071 46.4973 46.3993 47.2051 45.5064 47.7387C44.6135 48.2614 43.628 48.5228 42.5499 48.5228ZM42.5499 45.5663C43.0835 45.5663 43.5681 45.4356 44.0037 45.1743C44.4501 44.902 44.804 44.5427 45.0654 44.0962C45.3376 43.6498 45.4737 43.1652 45.4737 42.6425C45.4737 42.1198 45.3376 41.6352 45.0654 41.1888C44.804 40.7423 44.4501 40.3884 44.0037 40.1271C43.5681 39.8548 43.0835 39.7187 42.5499 39.7187C42.0273 39.7187 41.5427 39.8548 41.0962 40.1271C40.6606 40.3884 40.3067 40.7423 40.0345 41.1888C39.7732 41.6352 39.6425 42.1198 39.6425 42.6425C39.6425 43.1652 39.7732 43.6498 40.0345 44.0962C40.3067 44.5427 40.6606 44.902 41.0962 45.1743C41.5427 45.4356 42.0273 45.5663 42.5499 45.5663ZM28.813 35.7822C27.735 35.7822 26.7495 35.5209 25.8566 34.9982C24.9636 34.4646 24.2504 33.7568 23.7168 32.8748C23.1941 31.9818 22.9328 30.9909 22.9328 29.902C22.9328 28.8348 23.205 27.8548 23.7495 26.9618C24.2939 26.0689 25.0126 25.3557 25.9056 24.8221C26.7985 24.2885 27.7677 24.0217 28.813 24.0217C29.8911 24.0217 30.8711 24.2885 31.7532 24.8221C32.6461 25.3448 33.3593 26.0526 33.8929 26.9455C34.4265 27.8275 34.6933 28.813 34.6933 29.902C34.6933 30.9909 34.4265 31.9818 33.8929 32.8748C33.3593 33.7568 32.6461 34.4646 31.7532 34.9982C30.8711 35.5209 29.8911 35.7822 28.813 35.7822ZM28.813 32.8258C29.3357 32.8258 29.8203 32.6951 30.2668 32.4337C30.7132 32.1615 31.0671 31.8022 31.3285 31.3557C31.6007 30.9092 31.7368 30.4247 31.7368 29.902C31.7368 29.3793 31.6007 28.8947 31.3285 28.4482C31.0671 28.0018 30.7132 27.6479 30.2668 27.3865C29.8203 27.1143 29.3357 26.9782 28.813 26.9782C28.2903 26.9782 27.8058 27.1143 27.3593 27.3865C26.9237 27.6479 26.5698 28.0018 26.2976 28.4482C26.0254 28.8947 25.8892 29.3793 25.8892 29.902C25.8892 30.4247 26.0254 30.9092 26.2976 31.3557C26.5698 31.8022 26.9237 32.1615 27.3593 32.4337C27.7949 32.6951 28.2794 32.8258 28.813 32.8258Z" fill="#BAFF66"/>
</svg>
