<svg width="149" height="63" viewBox="0 0 149 63" fill="none" xmlns="http://www.w3.org/2000/svg">
    <path d="M1.664 8.888H18.4V12.344H6.752V16.312H17.664V19.736H6.752V27H1.664V8.888ZM20.5375 8.888H25.6255V19.288C25.6255 21.08 25.6895 24.056 30.3615 24.056C35.0335 24.056 35.1295 21.08 35.1295 19.288V8.888H40.1855V20.504C40.1855 22.552 39.9295 27.512 30.3615 27.512C20.7935 27.512 20.5375 22.552 20.5375 20.504V8.888ZM59.2987 8.888H64.2268V27H58.6908L48.5147 14.36H48.4507V27H43.5227V8.888H49.4107L59.2668 21.528H59.2987V8.888ZM67.9052 8.888H79.5852C85.9853 8.888 88.7693 12.504 88.7693 17.944C88.7693 23.384 85.8892 27 80.0332 27H67.9052V8.888ZM72.9932 23.544H78.6572C82.0173 23.544 83.5212 21.592 83.5212 17.784C83.5212 14.424 82.0492 12.344 78.1772 12.344H72.9932V23.544ZM91.5065 8.888H96.5945V27H91.5065V8.888ZM116.04 8.888H120.968V27H115.432L105.256 14.36H105.192V27H100.264V8.888H106.152L116.008 21.528H116.04V8.888ZM143.59 24.92C141.798 26.744 138.95 27.512 135.718 27.512C128.902 27.512 124.646 24.696 124.646 18.04C124.646 12.504 128.646 8.6 135.718 8.6C140.902 8.6 145.799 10.04 146.726 14.968H141.062C140.294 12.664 138.118 11.992 136.294 11.992C131.686 11.992 130.054 15.256 130.054 18.04C130.054 20.824 131.686 24.088 136.294 24.088C139.078 24.088 141.222 23.096 141.83 20.12H137.286V17.016H146.823V27H143.59V24.92Z"
          fill="#ECECEC"/>
    <path d="M14.72 43.264C14.4 40.928 12.064 40.704 10.048 40.704C7.936 40.704 6.56 41.6 6.56 42.784C6.56 43.744 7.424 44.288 8.736 44.48L15.104 45.472C18.496 45.984 21.088 47.232 21.088 50.496C21.088 53.824 18.752 56.512 11.36 56.512C6.816 56.512 0.896 55.968 0.832 50.368H6.56C6.592 52.832 9.184 53.248 11.36 53.248C13.76 53.248 15.392 52.576 15.392 51.008C15.392 49.632 14.24 49.248 12.224 48.96L7.584 48.288C4.32 47.808 1.184 46.88 1.184 43.2C1.184 39.2 4.576 37.568 10.464 37.568C14.304 37.568 20.032 38.208 20.352 43.264H14.72ZM23.4087 41.344V37.888H42.3848V41.344H35.4408V56H30.3527V41.344H23.4087ZM55.4013 52.256H46.7932L45.2572 56H39.7852L48.0092 37.888H54.1532L62.3773 56H56.9053L55.4013 52.256ZM51.0813 41.792L48.1372 48.96H54.0253L51.0813 41.792ZM72.065 46.656L64.769 37.888H70.881L75.009 43.52L79.137 37.888H85.249L77.953 46.656L85.889 56H79.585L75.009 49.888L70.433 56H64.129L72.065 46.656Z"
          fill="#ECECEC"/>
</svg>
