<svg width="171" height="65" viewBox="0 0 171 65" fill="none" xmlns="http://www.w3.org/2000/svg">
<path d="M170 47L170 63C170 63.5523 169.552 64 169 64L150 64" stroke="#BAFF66" stroke-width="2" stroke-linecap="round"/>
<path d="M1 18L1 2C1 1.44772 1.44772 1 2 1L21 1" stroke="#BAFF66" stroke-width="2" stroke-linecap="round"/>
<path d="M158.435 25.996C156.645 27.8285 153.8 28.6001 150.572 28.6001C143.763 28.6001 139.512 25.771 139.512 19.084C139.512 13.5223 143.507 9.6001 150.572 9.6001C155.75 9.6001 160.641 11.0468 161.567 15.9977H155.91C155.143 13.683 152.969 13.0079 151.147 13.0079C146.544 13.0079 144.914 16.2871 144.914 19.084C144.914 21.881 146.544 25.1602 151.147 25.1602C153.928 25.1602 156.07 24.1635 156.677 21.1737H152.138V18.0553H161.663V28.0857H158.435V25.996Z" fill="white"/>
<path d="M130.915 9.88965H135.838V28.0859H130.308L120.143 15.3871H120.079V28.0859H115.156V9.88965H121.038L130.883 22.5885H130.915V9.88965Z" fill="white"/>
<path d="M106.409 9.88965H111.491V28.0859H106.409V9.88965Z" fill="white"/>
<path d="M82.8329 9.88965H94.5001C100.893 9.88965 103.674 13.5225 103.674 18.9878C103.674 24.4531 100.797 28.0859 94.9476 28.0859H82.8329V9.88965ZM87.9153 24.6138H93.5731C96.9295 24.6138 98.4318 22.6528 98.4318 18.827C98.4318 15.4514 96.9614 13.3617 93.0937 13.3617H87.9153V24.6138Z" fill="white"/>
<path d="M74.2352 9.88965H79.1578V28.0859H73.6279L63.463 15.3871H63.3991V28.0859H58.4764V9.88965H64.358L74.2032 22.5885H74.2352V9.88965Z" fill="white"/>
<path d="M35.5165 9.88965H40.5989V20.338C40.5989 22.1384 40.6629 25.1282 45.3298 25.1282C49.9967 25.1282 50.0925 22.1384 50.0925 20.338V9.88965H55.143V21.5597C55.143 23.6172 54.8873 28.6003 45.3298 28.6003C35.7722 28.6003 35.5165 23.6172 35.5165 21.5597V9.88965Z" fill="white"/>
<path d="M16.6639 9.88965H33.3817V13.3617H21.7464V17.3482H32.6465V20.7881H21.7464V28.0859H16.6639V9.88965Z" fill="white"/>
<path d="M118.018 47.6826L110.726 38.8887H116.834L120.96 44.5373L125.085 38.8887H131.193L123.902 47.6826L131.832 57.0542H125.533L120.96 50.9241L116.387 57.0542H110.087L118.018 47.6826Z" fill="#BAFF66"/>
<path d="M101.364 53.2991H92.7621L91.2271 57.0542H85.7588L93.9773 38.8887H100.117L108.336 57.0542H102.867L101.364 53.2991ZM97.0472 42.8042L94.1052 49.9934H99.9892L97.0472 42.8042Z" fill="#BAFF66"/>
<path d="M69.3945 42.3549V38.8887H88.3578V42.3549H81.4185V57.0542H76.3339V42.3549H69.3945Z" fill="#BAFF66"/>
<path d="M60.7107 44.2807C60.3909 41.9378 58.0565 41.7131 56.0419 41.7131C53.9313 41.7131 52.5562 42.6118 52.5562 43.7993C52.5562 44.7621 53.4196 45.3077 54.7307 45.5003L61.0945 46.4952C64.4842 47.0087 67.0745 48.2604 67.0745 51.5341C67.0745 54.8719 64.74 57.5679 57.353 57.5679C52.812 57.5679 46.896 57.0223 46.832 51.4057H52.5562C52.5882 53.877 55.1784 54.2942 57.353 54.2942C59.7514 54.2942 61.3823 53.6202 61.3823 52.0476C61.3823 50.6675 60.231 50.2824 58.2164 49.9935L53.5795 49.3196C50.3177 48.8381 47.1838 47.9074 47.1838 44.2165C47.1838 40.2047 50.5735 38.5679 56.4576 38.5679C60.295 38.5679 66.0192 39.2098 66.339 44.2807H60.7107Z" fill="#BAFF66"/>
</svg>
