<svg width="116" height="56" viewBox="0 0 116 56" fill="none" xmlns="http://www.w3.org/2000/svg">
    <g clip-path="url(#clip0_274_1007)">
        <g clip-path="url(#clip1_274_1007)">
            <rect x="79.0298" width="35.9227" height="35.9227" rx="8.98068" fill="#263147"/>
            <path d="M92.0856 27.5032V27.6379H92.2203H94.4655H94.6002V27.5032V24.2702H101.201H101.336V24.1354V21.8903V21.7556H101.201H94.6002V19.7798H99.5171C102.686 19.7798 105.265 17.2016 105.265 14.0322C105.265 10.8628 102.686 8.28456 99.5171 8.28456H93.3429C93.0094 8.28456 92.6896 8.41702 92.4538 8.65281C92.218 8.8886 92.0856 9.20839 92.0856 9.54185V17.2652H88.8525H88.7178V17.3999V19.6451V19.7798H88.8525H92.0856V21.7556H88.8525H88.7178V21.8903V24.1354V24.2702H88.8525H92.0856V27.5032ZM94.6002 10.7991H99.5171C101.299 10.7991 102.75 12.2498 102.75 14.0322C102.75 15.8145 101.299 17.2652 99.5171 17.2652H94.6002V10.7991Z"
                  fill="#BAFF66" stroke="#BAFF66" stroke-width="0.26942"/>
        </g>
        <g clip-path="url(#clip2_274_1007)">
            <rect y="9.87863" width="35.9227" height="35.9227" rx="8.98068" fill="#263147"/>
            <path d="M19.1223 14.9404V18.8467H17.1103V14.9404H19.1223ZM18.874 36.2748V39.7761H16.8752V36.2748H18.874ZM20.8468 32.0549C20.8468 31.5498 20.7423 31.1099 20.5332 30.7354C20.3329 30.3522 20.002 30.0081 19.5403 29.7033C19.0787 29.3898 18.4603 29.098 17.6852 28.828C16.5703 28.436 15.5948 27.9962 14.7587 27.5085C13.9313 27.012 13.2868 26.4023 12.8252 25.6794C12.3722 24.9478 12.1458 24.0376 12.1458 22.9489C12.1458 21.8776 12.3897 20.9501 12.8774 20.1662C13.3739 19.3823 14.0619 18.777 14.9416 18.3502C15.8213 17.9234 16.849 17.71 18.0248 17.71C18.9307 17.71 19.745 17.845 20.4679 18.115C21.1995 18.385 21.8223 18.7813 22.3362 19.3039C22.85 19.8265 23.242 20.471 23.512 21.2375C23.7907 21.9952 23.93 22.8662 23.93 23.8504H20.7945C20.7945 23.293 20.7292 22.7965 20.5986 22.361C20.4766 21.9168 20.2937 21.5423 20.0499 21.2375C19.806 20.9239 19.5099 20.6844 19.1615 20.5189C18.8218 20.3534 18.4342 20.2707 17.9987 20.2707C17.3803 20.2707 16.8708 20.3883 16.4702 20.6234C16.0695 20.8499 15.7734 21.1634 15.5818 21.5641C15.3989 21.9647 15.3074 22.422 15.3074 22.9359C15.3074 23.4323 15.4032 23.8678 15.5948 24.2423C15.7865 24.6168 16.1131 24.9565 16.5747 25.2614C17.045 25.5575 17.6895 25.858 18.5082 26.1628C19.6318 26.5635 20.6029 27.012 21.4216 27.5085C22.2491 27.9962 22.8849 28.6015 23.3291 29.3244C23.782 30.0386 24.0084 30.9401 24.0084 32.0288C24.0084 33.1524 23.7471 34.1061 23.2245 34.8899C22.7107 35.6738 21.9878 36.2704 21.0558 36.6798C20.1326 37.0804 19.0569 37.2808 17.8289 37.2808C17.0537 37.2808 16.2829 37.1806 15.5165 36.9803C14.7587 36.7712 14.0706 36.4316 13.4523 35.9612C12.8339 35.4909 12.3418 34.8682 11.976 34.093C11.6101 33.3091 11.4272 32.3511 11.4272 31.2188H14.5889C14.5889 31.8982 14.6803 32.4643 14.8632 32.9172C15.0461 33.3701 15.2944 33.7272 15.6079 33.9885C15.9215 34.2498 16.2698 34.437 16.6531 34.5503C17.045 34.6635 17.4369 34.7201 17.8289 34.7201C18.4821 34.7201 19.0308 34.6112 19.475 34.3935C19.9279 34.167 20.2676 33.8535 20.4941 33.4528C20.7292 33.0435 20.8468 32.5775 20.8468 32.0549Z"
                  fill="#BAFF66"/>
        </g>
        <g clip-path="url(#clip3_274_1007)">
            <rect x="39.5151" y="19.7575" width="35.9227" height="35.9227" rx="8.98068" fill="#263147"/>
            <path d="M59.2845 44.735C57.2217 44.735 55.4145 43.3466 54.433 41.281H60.9246V38.4184H53.6785C53.6605 38.1869 53.6508 37.9549 53.6508 37.718C53.6508 37.4833 53.6604 37.2485 53.6785 37.0201H60.9247V34.157H54.4331C55.4146 32.0916 57.2217 30.7036 59.2846 30.7036C61.2562 30.7036 63.1127 32.0235 64.1294 34.1466L66.7124 32.912C65.215 29.7827 62.369 27.8401 59.2845 27.8401C56.9658 27.8401 54.8015 28.8997 53.1903 30.8262C52.38 31.7954 51.7609 32.9262 51.3538 34.157H48.2402V37.02H50.8082C50.7944 37.25 50.7873 37.4849 50.7873 37.718C50.7873 37.9535 50.7944 38.1853 50.8082 38.4184H48.2402V41.2809H51.3538C51.7609 42.5116 52.38 43.6411 53.1904 44.6094C54.8016 46.5361 56.9658 47.5976 59.2846 47.5976C62.3692 47.5976 65.215 45.6552 66.7124 42.526L64.1294 41.2891C63.1127 43.415 61.2561 44.735 59.2845 44.735Z"
                  fill="#BAFF66"/>
        </g>
    </g>
    <defs>
        <clipPath id="clip0_274_1007">
            <rect width="116" height="55.2812" fill="white"/>
        </clipPath>
        <clipPath id="clip1_274_1007">
            <rect width="35.9227" height="35.9227" fill="white" transform="translate(79.0298)"/>
        </clipPath>
        <clipPath id="clip2_274_1007">
            <rect width="35.9227" height="35.9227" fill="white" transform="translate(0 9.87863)"/>
        </clipPath>
        <clipPath id="clip3_274_1007">
            <rect width="35.9227" height="35.9227" fill="white" transform="translate(39.5151 19.7575)"/>
        </clipPath>
    </defs>
</svg>
