<svg width="79" height="60" viewBox="0 0 79 60" fill="none" xmlns="http://www.w3.org/2000/svg">
<path d="M63.9624 24.9057C63.9624 38.6607 52.8118 49.8113 39.0568 49.8113C25.3018 49.8113 14.1511 38.6607 14.1511 24.9057C14.1511 11.1506 25.3018 0 39.0568 0C52.8118 0 63.9624 11.1506 63.9624 24.9057Z" fill="#263147"/>
<path d="M40.9757 11.3208V15.743H38.698V11.3208H40.9757ZM40.6947 35.4729V39.4367H38.4318V35.4729H40.6947ZM42.928 30.6957C42.928 30.1239 42.8096 29.6259 42.573 29.2019C42.3462 28.7681 41.9715 28.3786 41.449 28.0335C40.9264 27.6786 40.2263 27.3483 39.3488 27.0426C38.0867 26.5989 36.9824 26.101 36.0358 25.5488C35.0991 24.9868 34.3694 24.2966 33.8469 23.4782C33.3341 22.6499 33.0778 21.6196 33.0778 20.3871C33.0778 19.1743 33.3539 18.1242 33.906 17.2368C34.468 16.3494 35.247 15.6641 36.2429 15.181C37.2387 14.6978 38.4022 14.4562 39.7333 14.4562C40.7588 14.4562 41.6807 14.6091 42.4991 14.9147C43.3273 15.2204 44.0323 15.669 44.614 16.2606C45.1958 16.8522 45.6395 17.5819 45.9451 18.4496C46.2607 19.3074 46.4184 20.2934 46.4184 21.4076H42.8688C42.8688 20.7765 42.7949 20.2145 42.647 19.7215C42.5089 19.2186 42.3019 18.7947 42.0258 18.4496C41.7497 18.0946 41.4145 17.8235 41.0201 17.6361C40.6355 17.4488 40.1967 17.3551 39.7037 17.3551C39.0037 17.3551 38.4269 17.4882 37.9733 17.7544C37.5197 18.0108 37.1845 18.3658 36.9676 18.8193C36.7605 19.2729 36.657 19.7905 36.657 20.3723C36.657 20.9343 36.7654 21.4273 36.9824 21.8513C37.1993 22.2753 37.569 22.6598 38.0916 23.0049C38.6241 23.3401 39.3537 23.6803 40.2805 24.0254C41.5525 24.479 42.6519 24.9868 43.5787 25.5488C44.5154 26.101 45.2352 26.7862 45.7381 27.6046C46.2508 28.4131 46.5072 29.4337 46.5072 30.6662C46.5072 31.9381 46.2114 33.0178 45.6198 33.9052C45.038 34.7926 44.2196 35.468 43.1646 35.9314C42.1194 36.385 40.9017 36.6118 39.5115 36.6118C38.6339 36.6118 37.7613 36.4984 36.8936 36.2716C36.0358 36.035 35.2569 35.6504 34.5568 35.118C33.8567 34.5855 33.2996 33.8805 32.8855 33.003C32.4714 32.1156 32.2643 31.031 32.2643 29.7492H35.8435C35.8435 30.5183 35.9471 31.1592 36.1541 31.6719C36.3612 32.1846 36.6422 32.5889 36.9971 32.8847C37.3521 33.1805 37.7465 33.3925 38.1804 33.5206C38.6241 33.6488 39.0678 33.7129 39.5115 33.7129C40.251 33.7129 40.8721 33.5897 41.375 33.3432C41.8877 33.0868 42.2723 32.7318 42.5286 32.2783C42.7949 31.8149 42.928 31.2873 42.928 30.6957Z" fill="#BAFF66"/>
<path fill-rule="evenodd" clip-rule="evenodd" d="M71.6653 37.6636L46.7121 54.4924L29.6918 43.7129L1.40958 59.9326L0.2775 58.2345L29.7312 41.0578L46.6732 51.7877L70.3993 35.7864L71.6653 37.6636Z" fill="#BAFF66"/>
<path d="M77.1674 30.8601C78.0295 30.7322 78.7067 31.5854 78.3865 32.3959L74.964 41.0578C74.6437 41.8683 73.5662 42.0282 73.0244 41.3456L67.2342 34.0507C66.6924 33.3681 67.0927 32.3549 67.9548 32.227L77.1674 30.8601Z" fill="#BAFF66"/>
</svg>
