<svg width="60" height="60" viewBox="0 0 60 60" fill="none" xmlns="http://www.w3.org/2000/svg">
    <path d="M28 25.5714C28 24.1513 26.8487 23 25.4286 23H20.5714C19.1513 23 18 24.1513 18 25.5714V55.4286C18 56.8487 19.1513 58 20.5714 58H25.4286C26.8487 58 28 56.8487 28 55.4286V25.5714Z"
          fill="#263147"/>
    <path d="M14 34.5714C14 33.1513 12.8487 32 11.4286 32H6.57143C5.15127 32 4 33.1513 4 34.5714V56.4286C4 57.8487 5.15127 59 6.57143 59H11.4286C12.8487 59 14 57.8487 14 56.4286V34.5714Z"
          fill="#263147"/>
    <path fill-rule="evenodd" clip-rule="evenodd"
          d="M39.2692 4.01529C38.6809 3.08117 37.3191 3.08117 36.7308 4.01529L29.0559 16.2007C28.4268 17.1996 29.1447 18.5001 30.3252 18.5001H33V55.4286C33 56.8487 34.1513 58 35.5714 58H40.4286C41.8487 58 43 56.8487 43 55.4286V18.5001H45.6748C46.8553 18.5001 47.5732 17.1996 46.944 16.2007L39.2692 4.01529Z"
          fill="#263147"/>
    <path d="M47.7656 23.6094V28.2812H45.3594V23.6094H47.7656ZM47.4688 49.125V53.3125H45.0781V49.125H47.4688ZM49.8281 44.0781C49.8281 43.474 49.7031 42.9479 49.4531 42.5C49.2135 42.0417 48.8177 41.6302 48.2656 41.2656C47.7135 40.8906 46.974 40.5417 46.0469 40.2188C44.7135 39.75 43.5469 39.224 42.5469 38.6406C41.5573 38.0469 40.7865 37.3177 40.2344 36.4531C39.6927 35.5781 39.4219 34.4896 39.4219 33.1875C39.4219 31.9062 39.7135 30.7969 40.2969 29.8594C40.8906 28.9219 41.7135 28.1979 42.7656 27.6875C43.8177 27.1771 45.0469 26.9219 46.4531 26.9219C47.5365 26.9219 48.5104 27.0833 49.375 27.4062C50.25 27.7292 50.9948 28.2031 51.6094 28.8281C52.224 29.4531 52.6927 30.224 53.0156 31.1406C53.349 32.0469 53.5156 33.0885 53.5156 34.2656H49.7656C49.7656 33.599 49.6875 33.0052 49.5312 32.4844C49.3854 31.9531 49.1667 31.5052 48.875 31.1406C48.5833 30.7656 48.2292 30.4792 47.8125 30.2812C47.4062 30.0833 46.9427 29.9844 46.4219 29.9844C45.6823 29.9844 45.0729 30.125 44.5938 30.4062C44.1146 30.6771 43.7604 31.0521 43.5312 31.5312C43.3125 32.0104 43.2031 32.5573 43.2031 33.1719C43.2031 33.7656 43.3177 34.2865 43.5469 34.7344C43.776 35.1823 44.1667 35.5885 44.7188 35.9531C45.2812 36.3073 46.0521 36.6667 47.0312 37.0312C48.375 37.5104 49.5365 38.0469 50.5156 38.6406C51.5052 39.224 52.2656 39.9479 52.7969 40.8125C53.3385 41.6667 53.6094 42.7448 53.6094 44.0469C53.6094 45.3906 53.2969 46.5312 52.6719 47.4688C52.0573 48.4062 51.1927 49.1198 50.0781 49.6094C48.974 50.0885 47.6875 50.3281 46.2188 50.3281C45.2917 50.3281 44.3698 50.2083 43.4531 49.9688C42.5469 49.7188 41.724 49.3125 40.9844 48.75C40.2448 48.1875 39.6562 47.4427 39.2188 46.5156C38.7812 45.5781 38.5625 44.4323 38.5625 43.0781H42.3438C42.3438 43.8906 42.4531 44.5677 42.6719 45.1094C42.8906 45.651 43.1875 46.0781 43.5625 46.3906C43.9375 46.7031 44.3542 46.9271 44.8125 47.0625C45.2812 47.1979 45.75 47.2656 46.2188 47.2656C47 47.2656 47.6562 47.1354 48.1875 46.875C48.7292 46.6042 49.1354 46.2292 49.4062 45.75C49.6875 45.2604 49.8281 44.7031 49.8281 44.0781Z"
          fill="#BAFF66"/>
</svg>
