<svg width="90" height="75" viewBox="0 0 90 75" fill="none" xmlns="http://www.w3.org/2000/svg">
<g clip-path="url(#clip0_436_937)">
<path d="M25.875 4.49999C25.875 2.01472 27.8897 0 30.375 0H59.625C62.1103 0 64.125 2.01472 64.125 4.49999V6.75001C64.125 9.23528 62.1103 11.25 59.625 11.25H30.375C27.8897 11.25 25.875 9.23528 25.875 6.75001V4.49999Z" fill="#263147"/>
<path d="M0 42.7501C0 40.2648 2.01472 38.2501 4.49999 38.2501H18C20.4853 38.2501 22.5 40.2648 22.5 42.7501V45.0001C22.5 47.4853 20.4853 49.5001 18 49.5001H4.49999C2.01472 49.5001 0 47.4853 0 45.0001V42.7501Z" fill="#263147"/>
<path d="M33.75 42.7501C33.75 40.2648 35.7647 38.2501 38.25 38.2501H51.75C54.2353 38.2501 56.25 40.2648 56.25 42.7501V45.0001C56.25 47.4853 54.2353 49.5001 51.75 49.5001H38.25C35.7647 49.5001 33.75 47.4853 33.75 45.0001V42.7501Z" fill="#263147"/>
<path d="M67.5 42.7501C67.5 40.2648 69.5147 38.2501 72 38.2501H85.5C87.9853 38.2501 90 40.2648 90 42.7501V45.0001C90 47.4853 87.9853 49.5001 85.5 49.5001H72C69.5147 49.5001 67.5 47.4853 67.5 45.0001V42.7501Z" fill="#263147"/>
<path d="M25.875 67.5002C25.875 65.0149 27.8897 63.0002 30.375 63.0002H59.625C62.1103 63.0002 64.125 65.0149 64.125 67.5002V69.7502C64.125 72.2355 62.1103 74.2502 59.625 74.2502H30.375C27.8897 74.2502 25.875 72.2355 25.875 69.7502V67.5002Z" fill="#263147"/>
<path fill-rule="evenodd" clip-rule="evenodd" d="M33.75 44.75H22.5V42.75H33.75V44.75Z" fill="#BAFF66"/>
<path fill-rule="evenodd" clip-rule="evenodd" d="M67.5 45H56.25V42.75H67.5V45Z" fill="#BAFF66"/>
<path fill-rule="evenodd" clip-rule="evenodd" d="M25.875 69.6252L11.25 69.6252L11.25 67.6252L25.875 67.6252L25.875 69.6252Z" fill="#BAFF66"/>
<path fill-rule="evenodd" clip-rule="evenodd" d="M78.75 69.6252H64.125V67.6252H78.75V69.6252Z" fill="#BAFF66"/>
<path fill-rule="evenodd" clip-rule="evenodd" d="M43.875 38.25V11.25H46.125V38.25H43.875Z" fill="#BAFF66"/>
<path fill-rule="evenodd" clip-rule="evenodd" d="M79.75 25L10 25L10 23L79.75 23L79.75 25Z" fill="#BAFF66"/>
<path fill-rule="evenodd" clip-rule="evenodd" d="M10 38.25L10 23.625L12 23.625L12 38.25L10 38.25Z" fill="#BAFF66"/>
<path fill-rule="evenodd" clip-rule="evenodd" d="M10 69.6252L10 49.5L12 49.5L12 69.6252L10 69.6252Z" fill="#BAFF66"/>
<path fill-rule="evenodd" clip-rule="evenodd" d="M77.75 69.75L77.75 49.5L79.75 49.5L79.75 69.75L77.75 69.75Z" fill="#BAFF66"/>
<path fill-rule="evenodd" clip-rule="evenodd" d="M77.5 38.25L77.5 23.625L79.75 23.625L79.75 38.25L77.5 38.25Z" fill="#BAFF66"/>
</g>
<defs>
<clipPath id="clip0_436_937">
<rect width="90" height="74.25" fill="white"/>
</clipPath>
</defs>
</svg>
