<svg width="18" height="15" viewBox="0 0 18 15" fill="none" xmlns="http://www.w3.org/2000/svg">
<path d="M1.52332 6.48385C6.66084 4.22371 13.3092 1.46814 14.2269 1.08675C16.6342 0.0885143 17.3729 0.279822 17.0046 2.49049C16.7401 4.07941 15.9769 9.33998 15.3686 12.6143C15.0077 14.556 14.1979 14.7861 12.9245 13.9461C12.3122 13.5418 9.22142 11.4979 8.55062 11.018C7.93827 10.5806 7.09373 10.0545 8.15288 9.01827C8.52977 8.64914 11.0004 6.29008 12.9254 4.45385C13.1776 4.21268 12.8608 3.81657 12.5697 4.00992C9.97521 5.73047 6.37796 8.11855 5.92013 8.42963C5.22848 8.89931 4.56422 9.11474 3.37181 8.77219C2.47086 8.51343 1.59076 8.2048 1.24821 8.08707C-0.0709183 7.63415 0.242206 7.04755 1.52332 6.48385Z" fill="#ECECEC"/>
</svg>
