<svg width="44" height="44" viewBox="0 0 44 44" fill="none" xmlns="http://www.w3.org/2000/svg">
    <g clip-path="url(#clip0_274_974)">
        <rect width="44" height="44" rx="22" fill="#263147"/>
        <path d="M21.072 12.3109C21.4079 11.4744 22.5921 11.4744 22.928 12.3108L24.8696 17.1458C25.0126 17.502 25.3469 17.7449 25.7299 17.7709L30.9282 18.1233C31.8275 18.1843 32.1934 19.3105 31.5017 19.8884L27.5034 23.2291C27.2088 23.4752 27.0811 23.8682 27.1747 24.2404L28.4459 29.2932C28.6658 30.1674 27.7078 30.8634 26.9444 30.3841L22.5317 27.6138C22.2066 27.4097 21.7934 27.4097 21.4683 27.6138L17.0556 30.3841C16.2922 30.8634 15.3342 30.1674 15.5541 29.2932L16.8253 24.2404C16.9189 23.8682 16.7912 23.4752 16.4966 23.2291L12.4983 19.8884C11.8066 19.3105 12.1725 18.1843 13.0718 18.1233L18.2701 17.7709C18.6531 17.7449 18.9874 17.502 19.1304 17.1458L21.072 12.3109Z"
              fill="#BAFF66"/>
    </g>
    <defs>
        <clipPath id="clip0_274_974">
            <rect width="44" height="44" fill="white"/>
        </clipPath>
    </defs>
</svg>
